<svg width="5223" height="1403" viewBox="0 0 5223 1403" fill="none" xmlns="http://www.w3.org/2000/svg">
<path d="M540 338.781L222 497.431V589.781L538 431.725L540 338.781Z" fill="#243665"/>
<path d="M981.728 413.494C1016.37 430.149 1038.39 465.182 1038.39 503.616V682.363L744.705 541.139C662.535 501.627 566.855 501.627 484.686 541.139L191 682.363V503.615C191 465.182 213.027 430.149 247.663 413.494L484.686 299.517C566.856 260.005 662.535 260.005 744.705 299.517L981.728 413.494Z" fill="#243665"/>
<path d="M611 309.833C613.127 308.169 616.114 308.169 618.24 309.833L619 525L615.121 522.48L611 524.825V309.833Z" fill="#8BD8BD"/>
<path d="M539.648 374.5C539.809 359.547 524.102 349.713 510.721 356.389L244.143 489.384C230.574 496.154 222 510.013 222 525.177V560.466C222 575.323 237.625 584.993 250.922 578.366L517.109 445.692C530.546 438.995 539.102 425.336 539.263 410.323L539.648 374.5Z" fill="#8BD8BD"/>
<path d="M686.352 374.5C686.191 359.547 701.898 349.713 715.279 356.389L981.857 489.384C995.426 496.154 1004 510.013 1004 525.177V560.466C1004 575.323 988.375 584.993 975.078 578.366L708.891 445.692C695.454 438.995 686.898 425.336 686.737 410.323L686.352 374.5Z" fill="#8BD8BD"/>
<path d="M1038.39 681.522V923.145L744.705 781.921C662.535 742.408 566.855 742.408 484.686 781.921L191 923.145V681.522L484.686 540.299C566.856 500.786 662.535 500.786 744.705 540.299L1038.39 681.522Z" fill="#8BD8BD"/>
<path d="M611 551.742C613.141 550.12 616.099 550.12 618.24 551.742L619 760C616.606 758.495 613.584 758.407 611.108 759.771L611 759.83V551.742Z" fill="#243665"/>
<path d="M686.352 615.277C686.191 600.324 701.898 590.49 715.279 597.166L981.857 730.161C995.426 736.931 1004 750.791 1004 765.954V801.244C1004 816.1 988.375 825.771 975.078 819.143L708.891 686.47C695.454 679.772 686.898 666.114 686.737 651.1L686.352 615.277Z" fill="#243665"/>
<path d="M744.556 783.227C744.605 783.25 744.655 783.274 744.705 783.298L1038.39 924.522V1070.72C1038.39 1114.92 992.223 1143.94 952.39 1124.79L744.705 1024.92C662.535 985.408 566.855 985.408 484.686 1024.92L277.002 1124.79C237.169 1143.94 191 1114.92 191 1070.72V924.522L484.686 783.298C484.749 783.267 484.813 783.237 484.876 783.207C566.926 743.752 662.506 743.772 744.556 783.227Z" fill="#243665"/>
<path d="M611 793.651C613.155 792.073 616.085 792.073 618.24 793.651L619 995C616.352 994.669 613.659 994.613 611 994.836V793.651Z" fill="#8BD8BD"/>
<path d="M539.648 858.281C539.809 843.328 524.102 833.494 510.721 840.17L244.143 973.165C230.574 979.935 222 993.795 222 1008.96V1044.25C222 1059.1 237.625 1068.77 250.922 1062.15L517.109 929.474C530.546 922.776 539.102 909.117 539.263 894.104L539.648 858.281Z" fill="#8BD8BD"/>
<path d="M686.352 858.281C686.191 843.328 701.898 833.494 715.279 840.17L981.857 973.165C995.426 979.935 1004 993.795 1004 1008.96V1044.25C1004 1059.1 988.375 1068.77 975.078 1062.15L708.891 929.474C695.454 922.776 686.898 909.117 686.737 894.104L686.352 858.281Z" fill="#8BD8BD"/>
<path d="M539.263 651.326C539.102 666.338 530.548 679.995 517.113 686.693L191 849.281V757.227L510.707 597.423C524.089 590.734 539.809 600.568 539.648 615.528L539.263 651.326Z" fill="#243665"/>
<path d="M1223.2 893V613H1360C1395.2 613 1421.6 619.667 1439.2 633C1457.07 646.333 1466 663.933 1466 685.8C1466 700.467 1462.4 713.267 1455.2 724.2C1448 734.867 1438.13 743.133 1425.6 749C1413.07 754.867 1398.67 757.8 1382.4 757.8L1390 741.4C1407.6 741.4 1423.2 744.333 1436.8 750.2C1450.4 755.8 1460.93 764.2 1468.4 775.4C1476.13 786.6 1480 800.333 1480 816.6C1480 840.6 1470.53 859.4 1451.6 873C1432.67 886.333 1404.8 893 1368 893H1223.2ZM1287.6 844.2H1363.2C1380 844.2 1392.67 841.533 1401.2 836.2C1410 830.6 1414.4 821.8 1414.4 809.8C1414.4 798.067 1410 789.4 1401.2 783.8C1392.67 777.933 1380 775 1363.2 775H1282.8V727.8H1352C1367.73 727.8 1379.73 725.133 1388 719.8C1396.53 714.2 1400.8 705.8 1400.8 694.6C1400.8 683.667 1396.53 675.533 1388 670.2C1379.73 664.6 1367.73 661.8 1352 661.8H1287.6V844.2ZM1631.46 896.2C1606.93 896.2 1585.33 891.4 1566.66 881.8C1548.26 872.2 1533.99 859.133 1523.86 842.6C1513.73 825.8 1508.66 806.733 1508.66 785.4C1508.66 763.8 1513.59 744.733 1523.46 728.2C1533.59 711.4 1547.33 698.333 1564.66 689C1581.99 679.4 1601.59 674.6 1623.46 674.6C1644.53 674.6 1663.46 679.133 1680.26 688.2C1697.33 697 1710.79 709.8 1720.66 726.6C1730.53 743.133 1735.46 763 1735.46 786.2C1735.46 788.6 1735.33 791.4 1735.06 794.6C1734.79 797.533 1734.53 800.333 1734.26 803H1559.46V766.6H1701.46L1677.46 777.4C1677.46 766.2 1675.19 756.467 1670.66 748.2C1666.13 739.933 1659.86 733.533 1651.86 729C1643.86 724.2 1634.53 721.8 1623.86 721.8C1613.19 721.8 1603.73 724.2 1595.46 729C1587.46 733.533 1581.19 740.067 1576.66 748.6C1572.13 756.867 1569.86 766.733 1569.86 778.2V787.8C1569.86 799.533 1572.39 809.933 1577.46 819C1582.79 827.8 1590.13 834.6 1599.46 839.4C1609.06 843.933 1620.26 846.2 1633.06 846.2C1644.53 846.2 1654.53 844.467 1663.06 841C1671.86 837.533 1679.86 832.333 1687.06 825.4L1720.26 861.4C1710.39 872.6 1697.99 881.267 1683.06 887.4C1668.13 893.267 1650.93 896.2 1631.46 896.2ZM1777 893V596.2H1839.4V893H1777ZM1897.32 893V677.8H1959.72V893H1897.32ZM1928.52 647.8C1917.05 647.8 1907.72 644.467 1900.52 637.8C1893.32 631.133 1889.72 622.867 1889.72 613C1889.72 603.133 1893.32 594.867 1900.52 588.2C1907.72 581.533 1917.05 578.2 1928.52 578.2C1939.98 578.2 1949.32 581.4 1956.52 587.8C1963.72 593.933 1967.32 601.933 1967.32 611.8C1967.32 622.2 1963.72 630.867 1956.52 637.8C1949.58 644.467 1940.25 647.8 1928.52 647.8ZM3533.75 893V613H3670.55C3705.75 613 3732.15 619.667 3749.75 633C3767.61 646.333 3776.55 663.933 3776.55 685.8C3776.55 700.467 3772.95 713.267 3765.75 724.2C3758.55 734.867 3748.68 743.133 3736.15 749C3723.61 754.867 3709.21 757.8 3692.95 757.8L3700.55 741.4C3718.15 741.4 3733.75 744.333 3747.35 750.2C3760.95 755.8 3771.48 764.2 3778.95 775.4C3786.68 786.6 3790.55 800.333 3790.55 816.6C3790.55 840.6 3781.08 859.4 3762.15 873C3743.21 886.333 3715.35 893 3678.55 893H3533.75ZM3598.15 844.2H3673.75C3690.55 844.2 3703.21 841.533 3711.75 836.2C3720.55 830.6 3724.95 821.8 3724.95 809.8C3724.95 798.067 3720.55 789.4 3711.75 783.8C3703.21 777.933 3690.55 775 3673.75 775H3593.35V727.8H3662.55C3678.28 727.8 3690.28 725.133 3698.55 719.8C3707.08 714.2 3711.35 705.8 3711.35 694.6C3711.35 683.667 3707.08 675.533 3698.55 670.2C3690.28 664.6 3678.28 661.8 3662.55 661.8H3598.15V844.2ZM3967.21 893V851L3963.21 841.8V766.6C3963.21 753.267 3959.07 742.867 3950.81 735.4C3942.81 727.933 3930.41 724.2 3913.61 724.2C3902.14 724.2 3890.81 726.067 3879.61 729.8C3868.67 733.267 3859.34 738.067 3851.61 744.2L3829.21 700.6C3840.94 692.333 3855.07 685.933 3871.61 681.4C3888.14 676.867 3904.94 674.6 3922.01 674.6C3954.81 674.6 3980.27 682.333 3998.41 697.8C4016.54 713.267 4025.61 737.4 4025.61 770.2V893H3967.21ZM3901.61 896.2C3884.81 896.2 3870.41 893.4 3858.41 887.8C3846.41 881.933 3837.21 874.067 3830.81 864.2C3824.41 854.333 3821.21 843.267 3821.21 831C3821.21 818.2 3824.27 807 3830.41 797.4C3836.81 787.8 3846.81 780.333 3860.41 775C3874.01 769.4 3891.74 766.6 3913.61 766.6H3970.81V803H3920.41C3905.74 803 3895.61 805.4 3890.01 810.2C3884.67 815 3882.01 821 3882.01 828.2C3882.01 836.2 3885.07 842.6 3891.21 847.4C3897.61 851.933 3906.27 854.2 3917.21 854.2C3927.61 854.2 3936.94 851.8 3945.21 847C3953.47 841.933 3959.47 834.6 3963.21 825L3972.81 853.8C3968.27 867.667 3960.01 878.2 3948.01 885.4C3936.01 892.6 3920.54 896.2 3901.61 896.2ZM4082.08 893V677.8H4141.68V738.6L4133.28 721C4139.68 705.8 4149.95 694.333 4164.08 686.6C4178.21 678.6 4195.41 674.6 4215.68 674.6V732.2C4213.01 731.933 4210.61 731.8 4208.48 731.8C4206.35 731.533 4204.08 731.4 4201.68 731.4C4184.61 731.4 4170.75 736.333 4160.08 746.2C4149.68 755.8 4144.48 770.867 4144.48 791.4V893H4082.08ZM4358.02 896.2C4333.49 896.2 4311.89 891.4 4293.22 881.8C4274.82 872.2 4260.56 859.133 4250.42 842.6C4240.29 825.8 4235.22 806.733 4235.22 785.4C4235.22 763.8 4240.16 744.733 4250.02 728.2C4260.16 711.4 4273.89 698.333 4291.22 689C4308.56 679.4 4328.16 674.6 4350.02 674.6C4371.09 674.6 4390.02 679.133 4406.82 688.2C4423.89 697 4437.36 709.8 4447.22 726.6C4457.09 743.133 4462.02 763 4462.02 786.2C4462.02 788.6 4461.89 791.4 4461.62 794.6C4461.36 797.533 4461.09 800.333 4460.82 803H4286.02V766.6H4428.02L4404.02 777.4C4404.02 766.2 4401.76 756.467 4397.22 748.2C4392.69 739.933 4386.42 733.533 4378.42 729C4370.42 724.2 4361.09 721.8 4350.42 721.8C4339.76 721.8 4330.29 724.2 4322.02 729C4314.02 733.533 4307.76 740.067 4303.22 748.6C4298.69 756.867 4296.42 766.733 4296.42 778.2V787.8C4296.42 799.533 4298.96 809.933 4304.02 819C4309.36 827.8 4316.69 834.6 4326.02 839.4C4335.62 843.933 4346.82 846.2 4359.62 846.2C4371.09 846.2 4381.09 844.467 4389.62 841C4398.42 837.533 4406.42 832.333 4413.62 825.4L4446.82 861.4C4436.96 872.6 4424.56 881.267 4409.62 887.4C4394.69 893.267 4377.49 896.2 4358.02 896.2ZM4503.57 893V677.8H4563.17V737.4L4551.97 719.4C4559.7 705 4570.77 693.933 4585.17 686.2C4599.57 678.467 4615.97 674.6 4634.37 674.6C4651.43 674.6 4666.63 678.067 4679.97 685C4693.57 691.667 4704.23 702.067 4711.97 716.2C4719.7 730.067 4723.57 747.933 4723.57 769.8V893H4661.17V779.4C4661.17 762.067 4657.3 749.267 4649.57 741C4642.1 732.733 4631.43 728.6 4617.57 728.6C4607.7 728.6 4598.77 730.733 4590.77 735C4583.03 739 4576.9 745.267 4572.37 753.8C4568.1 762.333 4565.97 773.267 4565.97 786.6V893H4503.57ZM4882.89 973.8C4862.62 973.8 4843.02 971.267 4824.09 966.2C4805.42 961.4 4789.82 954.067 4777.29 944.2L4802.09 899.4C4811.16 906.867 4822.62 912.733 4836.49 917C4850.62 921.533 4864.49 923.8 4878.09 923.8C4900.22 923.8 4916.22 918.867 4926.09 909C4936.22 899.133 4941.29 884.467 4941.29 865V832.6L4945.29 778.6L4944.49 724.2V677.8H5003.69V857C5003.69 897 4993.29 926.467 4972.49 945.4C4951.69 964.333 4921.82 973.8 4882.89 973.8ZM4873.29 882.6C4853.29 882.6 4835.16 878.333 4818.89 869.8C4802.89 861 4789.96 848.867 4780.09 833.4C4770.49 817.667 4765.69 799.4 4765.69 778.6C4765.69 757.533 4770.49 739.267 4780.09 723.8C4789.96 708.067 4802.89 695.933 4818.89 687.4C4835.16 678.867 4853.29 674.6 4873.29 674.6C4891.42 674.6 4907.42 678.333 4921.29 685.8C4935.16 693 4945.96 704.333 4953.69 719.8C4961.42 735 4965.29 754.6 4965.29 778.6C4965.29 802.333 4961.42 821.933 4953.69 837.4C4945.96 852.6 4935.16 863.933 4921.29 871.4C4907.42 878.867 4891.42 882.6 4873.29 882.6ZM4885.69 831.4C4896.62 831.4 4906.36 829.267 4914.89 825C4923.42 820.467 4930.09 814.2 4934.89 806.2C4939.69 798.2 4942.09 789 4942.09 778.6C4942.09 767.933 4939.69 758.733 4934.89 751C4930.09 743 4923.42 736.867 4914.89 732.6C4906.36 728.067 4896.62 725.8 4885.69 725.8C4874.76 725.8 4865.02 728.067 4856.49 732.6C4847.96 736.867 4841.16 743 4836.09 751C4831.29 758.733 4828.89 767.933 4828.89 778.6C4828.89 789 4831.29 798.2 4836.09 806.2C4841.16 814.2 4847.96 820.467 4856.49 825C4865.02 829.267 4874.76 831.4 4885.69 831.4Z" fill="#243665"/>
<path d="M2022.03 893V613H2141.63C2180.56 613 2210.83 622.067 2232.43 640.2C2254.03 658.067 2264.83 682.867 2264.83 714.6C2264.83 735.4 2259.89 753.4 2250.03 768.6C2240.16 783.533 2226.16 795 2208.03 803C2189.89 811 2168.29 815 2143.23 815H2058.03L2086.83 786.6V893H2022.03ZM2200.03 893L2130.03 791.4H2199.23L2270.03 893H2200.03ZM2086.83 793.8L2058.03 763.4H2139.63C2159.63 763.4 2174.56 759.133 2184.43 750.6C2194.29 741.8 2199.23 729.8 2199.23 714.6C2199.23 699.133 2194.29 687.133 2184.43 678.6C2174.56 670.067 2159.63 665.8 2139.63 665.8H2058.03L2086.83 635V793.8ZM2402.57 896.2C2384.7 896.2 2368.7 892.733 2354.57 885.8C2340.7 878.867 2329.9 868.333 2322.17 854.2C2314.44 839.8 2310.57 821.533 2310.57 799.4V677.8H2372.97V790.2C2372.97 808.067 2376.7 821.267 2384.17 829.8C2391.9 838.067 2402.7 842.2 2416.57 842.2C2426.17 842.2 2434.7 840.2 2442.17 836.2C2449.64 831.933 2455.5 825.533 2459.77 817C2464.04 808.2 2466.17 797.267 2466.17 784.2V677.8H2528.57V893H2469.37V833.8L2480.17 851C2472.97 865.933 2462.3 877.267 2448.17 885C2434.3 892.467 2419.1 896.2 2402.57 896.2ZM2586.38 893V677.8H2645.98V736.6L2634.78 719.4C2642.24 704.733 2652.78 693.667 2666.38 686.2C2680.24 678.467 2695.98 674.6 2713.58 674.6C2733.31 674.6 2750.51 679.667 2765.18 689.8C2780.11 699.667 2789.98 714.867 2794.78 735.4L2772.78 729.4C2779.98 712.6 2791.44 699.267 2807.18 689.4C2823.18 679.533 2841.44 674.6 2861.98 674.6C2879.04 674.6 2894.11 678.067 2907.18 685C2920.51 691.667 2930.91 702.067 2938.38 716.2C2946.11 730.067 2949.98 747.933 2949.98 769.8V893H2887.58V779.4C2887.58 762.067 2883.98 749.267 2876.78 741C2869.58 732.733 2859.44 728.6 2846.38 728.6C2837.31 728.6 2829.18 730.733 2821.98 735C2814.78 739 2809.18 745.133 2805.18 753.4C2801.18 761.667 2799.18 772.2 2799.18 785V893H2736.78V779.4C2736.78 762.067 2733.18 749.267 2725.98 741C2719.04 732.733 2709.04 728.6 2695.98 728.6C2686.91 728.6 2678.78 730.733 2671.58 735C2664.38 739 2658.78 745.133 2654.78 753.4C2650.78 761.667 2648.78 772.2 2648.78 785V893H2586.38ZM3137.91 893V851L3133.91 841.8V766.6C3133.91 753.267 3129.78 742.867 3121.51 735.4C3113.51 727.933 3101.11 724.2 3084.31 724.2C3072.84 724.2 3061.51 726.067 3050.31 729.8C3039.38 733.267 3030.04 738.067 3022.31 744.2L2999.91 700.6C3011.64 692.333 3025.78 685.933 3042.31 681.4C3058.84 676.867 3075.64 674.6 3092.71 674.6C3125.51 674.6 3150.98 682.333 3169.11 697.8C3187.24 713.267 3196.31 737.4 3196.31 770.2V893H3137.91ZM3072.31 896.2C3055.51 896.2 3041.11 893.4 3029.11 887.8C3017.11 881.933 3007.91 874.067 3001.51 864.2C2995.11 854.333 2991.91 843.267 2991.91 831C2991.91 818.2 2994.98 807 3001.11 797.4C3007.51 787.8 3017.51 780.333 3031.11 775C3044.71 769.4 3062.44 766.6 3084.31 766.6H3141.51V803H3091.11C3076.44 803 3066.31 805.4 3060.71 810.2C3055.38 815 3052.71 821 3052.71 828.2C3052.71 836.2 3055.78 842.6 3061.91 847.4C3068.31 851.933 3076.98 854.2 3087.91 854.2C3098.31 854.2 3107.64 851.8 3115.91 847C3124.18 841.933 3130.18 834.6 3133.91 825L3143.51 853.8C3138.98 867.667 3130.71 878.2 3118.71 885.4C3106.71 892.6 3091.24 896.2 3072.31 896.2ZM3252.78 893V596.2H3315.18V737.4L3301.18 719.4C3308.92 705 3319.98 693.933 3334.38 686.2C3348.78 678.467 3365.18 674.6 3383.58 674.6C3400.65 674.6 3415.85 678.067 3429.18 685C3442.78 691.667 3453.45 702.067 3461.18 716.2C3468.92 730.067 3472.78 747.933 3472.78 769.8V893H3410.38V779.4C3410.38 762.067 3406.52 749.267 3398.78 741C3391.32 732.733 3380.65 728.6 3366.78 728.6C3356.92 728.6 3347.98 730.733 3339.98 735C3332.25 739 3326.12 745.267 3321.58 753.8C3317.32 762.333 3315.18 773.267 3315.18 786.6V893H3252.78Z" fill="#8BD8BD"/>
</svg>
