<svg width="3341" height="1343" viewBox="0 0 3341 1343" fill="none" xmlns="http://www.w3.org/2000/svg">
<path d="M588 308.781L270 467.431V559.781L586 401.725L588 308.781Z" fill="#212121"/>
<path d="M1029.73 383.494C1064.37 400.149 1086.39 435.182 1086.39 473.615V652.363L792.705 511.139C710.535 471.627 614.855 471.627 532.686 511.139L239 652.363V473.615C239 435.182 261.027 400.149 295.663 383.494L532.686 269.517C614.856 230.005 710.535 230.005 792.705 269.517L1029.73 383.494Z" fill="#212121"/>
<path d="M587.648 344.5C587.809 329.547 572.102 319.713 558.721 326.389L292.143 459.384C278.574 466.154 270 480.013 270 495.177V530.466C270 545.323 285.625 554.993 298.922 548.366L565.109 415.692C578.546 408.995 587.102 395.336 587.263 380.323L587.648 344.5Z" fill="white" fill-opacity="0.5"/>
<path d="M734.352 344.5C734.191 329.547 749.898 319.713 763.279 326.389L1029.86 459.384C1043.43 466.154 1052 480.013 1052 495.177V530.466C1052 545.323 1036.37 554.993 1023.08 548.366L756.891 415.692C743.454 408.995 734.898 395.336 734.737 380.323L734.352 344.5Z" fill="white" fill-opacity="0.5"/>
<path d="M659 279.834C661.127 278.17 664.114 278.17 666.24 279.834L666.949 480.691C709.99 481.301 752.93 491.17 792.705 510.296L1086.39 651.52V893.142L792.705 751.918C710.535 712.405 614.855 712.405 532.686 751.918L239 893.142V651.52L532.686 510.296C572.632 491.087 615.772 481.217 659 480.685V279.834Z" fill="white" fill-opacity="0.5"/>
<path d="M734.352 585.281C734.191 570.328 749.898 560.494 763.279 567.17L1029.86 700.165C1043.43 706.935 1052 720.795 1052 735.958V771.247C1052 786.104 1036.37 795.775 1023.08 789.147L756.891 656.474C743.454 649.776 734.898 636.117 734.737 621.104L734.352 585.281Z" fill="#212121"/>
<path d="M659 521.74C661.141 520.118 664.099 520.118 666.24 521.74L666.977 723.649C709.96 724.264 752.843 734.124 792.556 753.22C792.605 753.244 792.655 753.268 792.705 753.291L1086.39 894.516V1040.71C1086.39 1084.91 1040.22 1113.94 1000.39 1094.78L792.705 994.914C710.535 955.401 614.855 955.402 532.686 994.914L325.002 1094.78C285.169 1113.94 239 1084.91 239 1040.71V894.516L532.686 753.291C532.749 753.261 532.813 753.231 532.876 753.201C572.756 734.023 615.834 724.173 659 723.643V521.74Z" fill="#212121"/>
<path d="M659 763.651C661.155 762.073 664.085 762.073 666.24 763.651L667 965C664.352 964.669 661.659 964.613 659 964.836V763.651Z" fill="white" fill-opacity="0.5"/>
<path d="M587.648 828.281C587.809 813.328 572.102 803.494 558.721 810.17L292.143 943.165C278.574 949.935 270 963.795 270 978.958V1014.25C270 1029.1 285.625 1038.77 298.922 1032.15L565.109 899.474C578.546 892.776 587.102 879.117 587.263 864.104L587.648 828.281Z" fill="white" fill-opacity="0.5"/>
<path d="M734.352 828.281C734.191 813.328 749.898 803.494 763.279 810.17L1029.86 943.165C1043.43 949.935 1052 963.795 1052 978.958V1014.25C1052 1029.1 1036.37 1038.77 1023.08 1032.15L756.891 899.474C743.454 892.776 734.898 879.117 734.737 864.104L734.352 828.281Z" fill="white" fill-opacity="0.5"/>
<path d="M587.263 621.326C587.102 636.338 578.548 649.995 565.113 656.693L239 819.281V727.227L558.707 567.423C572.089 560.734 587.809 570.568 587.648 585.528L587.263 621.326Z" fill="#212121"/>
<path d="M1393.9 660V450H1496.5C1522.9 450 1542.7 455 1555.9 465C1569.3 475 1576 488.2 1576 504.6C1576 515.6 1573.3 525.2 1567.9 533.4C1562.5 541.4 1555.1 547.6 1545.7 552C1536.3 556.4 1525.5 558.6 1513.3 558.6L1519 546.3C1532.2 546.3 1543.9 548.5 1554.1 552.9C1564.3 557.1 1572.2 563.4 1577.8 571.8C1583.6 580.2 1586.5 590.5 1586.5 602.7C1586.5 620.7 1579.4 634.8 1565.2 645C1551 655 1530.1 660 1502.5 660H1393.9ZM1442.2 623.4H1498.9C1511.5 623.4 1521 621.4 1527.4 617.4C1534 613.2 1537.3 606.6 1537.3 597.6C1537.3 588.8 1534 582.3 1527.4 578.1C1521 573.7 1511.5 571.5 1498.9 571.5H1438.6V536.1H1490.5C1502.3 536.1 1511.3 534.1 1517.5 530.1C1523.9 525.9 1527.1 519.6 1527.1 511.2C1527.1 503 1523.9 496.9 1517.5 492.9C1511.3 488.7 1502.3 486.6 1490.5 486.6H1442.2V623.4ZM1700.09 662.4C1681.69 662.4 1665.49 658.8 1651.49 651.6C1637.69 644.4 1626.99 634.6 1619.39 622.2C1611.79 609.6 1607.99 595.3 1607.99 579.3C1607.99 563.1 1611.69 548.8 1619.09 536.4C1626.69 523.8 1636.99 514 1649.99 507C1662.99 499.8 1677.69 496.2 1694.09 496.2C1709.89 496.2 1724.09 499.6 1736.69 506.4C1749.49 513 1759.59 522.6 1766.99 535.2C1774.39 547.6 1778.09 562.5 1778.09 579.9C1778.09 581.7 1777.99 583.8 1777.79 586.2C1777.59 588.4 1777.39 590.5 1777.19 592.5H1646.09V565.2H1752.59L1734.59 573.3C1734.59 564.9 1732.89 557.6 1729.49 551.4C1726.09 545.2 1721.39 540.4 1715.39 537C1709.39 533.4 1702.39 531.6 1694.39 531.6C1686.39 531.6 1679.29 533.4 1673.09 537C1667.09 540.4 1662.39 545.3 1658.99 551.7C1655.59 557.9 1653.89 565.3 1653.89 573.9V581.1C1653.89 589.9 1655.79 597.7 1659.59 604.5C1663.59 611.1 1669.09 616.2 1676.09 619.8C1683.29 623.2 1691.69 624.9 1701.29 624.9C1709.89 624.9 1717.39 623.6 1723.79 621C1730.39 618.4 1736.39 614.5 1741.79 609.3L1766.69 636.3C1759.29 644.7 1749.99 651.2 1738.79 655.8C1727.59 660.2 1714.69 662.4 1700.09 662.4ZM1809.25 660V437.4H1856.05V660H1809.25ZM1899.49 660V498.6H1946.29V660H1899.49ZM1922.89 476.1C1914.29 476.1 1907.29 473.6 1901.89 468.6C1896.49 463.6 1893.79 457.4 1893.79 450C1893.79 442.6 1896.49 436.4 1901.89 431.4C1907.29 426.4 1914.29 423.9 1922.89 423.9C1931.49 423.9 1938.49 426.3 1943.89 431.1C1949.29 435.7 1951.99 441.7 1951.99 449.1C1951.99 456.9 1949.29 463.4 1943.89 468.6C1938.69 473.6 1931.69 476.1 1922.89 476.1ZM1993.02 660V450H2082.72C2111.92 450 2134.62 456.8 2150.82 470.4C2167.02 483.8 2175.12 502.4 2175.12 526.2C2175.12 541.8 2171.42 555.3 2164.02 566.7C2156.62 577.9 2146.12 586.5 2132.52 592.5C2118.92 598.5 2102.72 601.5 2083.92 601.5H2020.02L2041.62 580.2V660H1993.02ZM2126.52 660L2074.02 583.8H2125.92L2179.02 660H2126.52ZM2041.62 585.6L2020.02 562.8H2081.22C2096.22 562.8 2107.42 559.6 2114.82 553.2C2122.22 546.6 2125.92 537.6 2125.92 526.2C2125.92 514.6 2122.22 505.6 2114.82 499.2C2107.42 492.8 2096.22 489.6 2081.22 489.6H2020.02L2041.62 466.5V585.6ZM2278.43 662.4C2265.03 662.4 2253.03 659.8 2242.43 654.6C2232.03 649.4 2223.93 641.5 2218.13 630.9C2212.33 620.1 2209.43 606.4 2209.43 589.8V498.6H2256.23V582.9C2256.23 596.3 2259.03 606.2 2264.63 612.6C2270.43 618.8 2278.53 621.9 2288.93 621.9C2296.13 621.9 2302.53 620.4 2308.13 617.4C2313.73 614.2 2318.13 609.4 2321.33 603C2324.53 596.4 2326.13 588.2 2326.13 578.4V498.6H2372.93V660H2328.53V615.6L2336.63 628.5C2331.23 639.7 2323.23 648.2 2312.63 654C2302.23 659.6 2290.83 662.4 2278.43 662.4ZM2416.28 660V498.6H2460.98V542.7L2452.58 529.8C2458.18 518.8 2466.08 510.5 2476.28 504.9C2486.68 499.1 2498.48 496.2 2511.68 496.2C2526.48 496.2 2539.38 500 2550.38 507.6C2561.58 515 2568.98 526.4 2572.58 541.8L2556.08 537.3C2561.48 524.7 2570.08 514.7 2581.88 507.3C2593.88 499.9 2607.58 496.2 2622.98 496.2C2635.78 496.2 2647.08 498.8 2656.88 504C2666.88 509 2674.68 516.8 2680.28 527.4C2686.08 537.8 2688.98 551.2 2688.98 567.6V660H2642.18V574.8C2642.18 561.8 2639.48 552.2 2634.08 546C2628.68 539.8 2621.08 536.7 2611.28 536.7C2604.48 536.7 2598.38 538.3 2592.98 541.5C2587.58 544.5 2583.38 549.1 2580.38 555.3C2577.38 561.5 2575.88 569.4 2575.88 579V660H2529.08V574.8C2529.08 561.8 2526.38 552.2 2520.98 546C2515.78 539.8 2508.28 536.7 2498.48 536.7C2491.68 536.7 2485.58 538.3 2480.18 541.5C2474.78 544.5 2470.58 549.1 2467.58 555.3C2464.58 561.5 2463.08 569.4 2463.08 579V660H2416.28ZM2829.93 660V628.5L2826.93 621.6V565.2C2826.93 555.2 2823.83 547.4 2817.63 541.8C2811.63 536.2 2802.33 533.4 2789.73 533.4C2781.13 533.4 2772.63 534.8 2764.23 537.6C2756.03 540.2 2749.03 543.8 2743.23 548.4L2726.43 515.7C2735.23 509.5 2745.83 504.7 2758.23 501.3C2770.63 497.9 2783.23 496.2 2796.03 496.2C2820.63 496.2 2839.73 502 2853.33 513.6C2866.93 525.2 2873.73 543.3 2873.73 567.9V660H2829.93ZM2780.73 662.4C2768.13 662.4 2757.33 660.3 2748.33 656.1C2739.33 651.7 2732.43 645.8 2727.63 638.4C2722.83 631 2720.43 622.7 2720.43 613.5C2720.43 603.9 2722.73 595.5 2727.33 588.3C2732.13 581.1 2739.63 575.5 2749.83 571.5C2760.03 567.3 2773.33 565.2 2789.73 565.2H2832.63V592.5H2794.83C2783.83 592.5 2776.23 594.3 2772.03 597.9C2768.03 601.5 2766.03 606 2766.03 611.4C2766.03 617.4 2768.33 622.2 2772.93 625.8C2777.73 629.2 2784.23 630.9 2792.43 630.9C2800.23 630.9 2807.23 629.1 2813.43 625.5C2819.63 621.7 2824.13 616.2 2826.93 609L2834.13 630.6C2830.73 641 2824.53 648.9 2815.53 654.3C2806.53 659.7 2794.93 662.4 2780.73 662.4ZM2916.09 660V437.4H2962.89V543.3L2952.39 529.8C2958.19 519 2966.49 510.7 2977.29 504.9C2988.09 499.1 3000.39 496.2 3014.19 496.2C3026.99 496.2 3038.39 498.8 3048.39 504C3058.59 509 3066.59 516.8 3072.39 527.4C3078.19 537.8 3081.09 551.2 3081.09 567.6V660H3034.29V574.8C3034.29 561.8 3031.39 552.2 3025.59 546C3019.99 539.8 3011.99 536.7 3001.59 536.7C2994.19 536.7 2987.49 538.3 2981.49 541.5C2975.69 544.5 2971.09 549.2 2967.69 555.6C2964.49 562 2962.89 570.2 2962.89 580.2V660H2916.09ZM1393.9 980V770H1496.5C1522.9 770 1542.7 775 1555.9 785C1569.3 795 1576 808.2 1576 824.6C1576 835.6 1573.3 845.2 1567.9 853.4C1562.5 861.4 1555.1 867.6 1545.7 872C1536.3 876.4 1525.5 878.6 1513.3 878.6L1519 866.3C1532.2 866.3 1543.9 868.5 1554.1 872.9C1564.3 877.1 1572.2 883.4 1577.8 891.8C1583.6 900.2 1586.5 910.5 1586.5 922.7C1586.5 940.7 1579.4 954.8 1565.2 965C1551 975 1530.1 980 1502.5 980H1393.9ZM1442.2 943.4H1498.9C1511.5 943.4 1521 941.4 1527.4 937.4C1534 933.2 1537.3 926.6 1537.3 917.6C1537.3 908.8 1534 902.3 1527.4 898.1C1521 893.7 1511.5 891.5 1498.9 891.5H1438.6V856.1H1490.5C1502.3 856.1 1511.3 854.1 1517.5 850.1C1523.9 845.9 1527.1 839.6 1527.1 831.2C1527.1 823 1523.9 816.9 1517.5 812.9C1511.3 808.7 1502.3 806.6 1490.5 806.6H1442.2V943.4ZM1718.99 980V948.5L1715.99 941.6V885.2C1715.99 875.2 1712.89 867.4 1706.69 861.8C1700.69 856.2 1691.39 853.4 1678.79 853.4C1670.19 853.4 1661.69 854.8 1653.29 857.6C1645.09 860.2 1638.09 863.8 1632.29 868.4L1615.49 835.7C1624.29 829.5 1634.89 824.7 1647.29 821.3C1659.69 817.9 1672.29 816.2 1685.09 816.2C1709.69 816.2 1728.79 822 1742.39 833.6C1755.99 845.2 1762.79 863.3 1762.79 887.9V980H1718.99ZM1669.79 982.4C1657.19 982.4 1646.39 980.3 1637.39 976.1C1628.39 971.7 1621.49 965.8 1616.69 958.4C1611.89 951 1609.49 942.7 1609.49 933.5C1609.49 923.9 1611.79 915.5 1616.39 908.3C1621.19 901.1 1628.69 895.5 1638.89 891.5C1649.09 887.3 1662.39 885.2 1678.79 885.2H1721.69V912.5H1683.89C1672.89 912.5 1665.29 914.3 1661.09 917.9C1657.09 921.5 1655.09 926 1655.09 931.4C1655.09 937.4 1657.39 942.2 1661.99 945.8C1666.79 949.2 1673.29 950.9 1681.49 950.9C1689.29 950.9 1696.29 949.1 1702.49 945.5C1708.69 941.7 1713.19 936.2 1715.99 929L1723.19 950.6C1719.79 961 1713.59 968.9 1704.59 974.3C1695.59 979.7 1683.99 982.4 1669.79 982.4ZM1805.15 980V818.6H1849.85V864.2L1843.55 851C1848.35 839.6 1856.05 831 1866.65 825.2C1877.25 819.2 1890.15 816.2 1905.35 816.2V859.4C1903.35 859.2 1901.55 859.1 1899.95 859.1C1898.35 858.9 1896.65 858.8 1894.85 858.8C1882.05 858.8 1871.65 862.5 1863.65 869.9C1855.85 877.1 1851.95 888.4 1851.95 903.8V980H1805.15ZM2012.11 982.4C1993.71 982.4 1977.51 978.8 1963.51 971.6C1949.71 964.4 1939.01 954.6 1931.41 942.2C1923.81 929.6 1920.01 915.3 1920.01 899.3C1920.01 883.1 1923.71 868.8 1931.11 856.4C1938.71 843.8 1949.01 834 1962.01 827C1975.01 819.8 1989.71 816.2 2006.11 816.2C2021.91 816.2 2036.11 819.6 2048.71 826.4C2061.51 833 2071.61 842.6 2079.01 855.2C2086.41 867.6 2090.11 882.5 2090.11 899.9C2090.11 901.7 2090.01 903.8 2089.81 906.2C2089.61 908.4 2089.41 910.5 2089.21 912.5H1958.11V885.2H2064.61L2046.61 893.3C2046.61 884.9 2044.91 877.6 2041.51 871.4C2038.11 865.2 2033.41 860.4 2027.41 857C2021.41 853.4 2014.41 851.6 2006.41 851.6C1998.41 851.6 1991.31 853.4 1985.11 857C1979.11 860.4 1974.41 865.3 1971.01 871.7C1967.61 877.9 1965.91 885.3 1965.91 893.9V901.1C1965.91 909.9 1967.81 917.7 1971.61 924.5C1975.61 931.1 1981.11 936.2 1988.11 939.8C1995.31 943.2 2003.71 944.9 2013.31 944.9C2021.91 944.9 2029.41 943.6 2035.81 941C2042.41 938.4 2048.41 934.5 2053.81 929.3L2078.71 956.3C2071.31 964.7 2062.01 971.2 2050.81 975.8C2039.61 980.2 2026.71 982.4 2012.11 982.4ZM2121.26 980V818.6H2165.96V863.3L2157.56 849.8C2163.36 839 2171.66 830.7 2182.46 824.9C2193.26 819.1 2205.56 816.2 2219.36 816.2C2232.16 816.2 2243.56 818.8 2253.56 824C2263.76 829 2271.76 836.8 2277.56 847.4C2283.36 857.8 2286.26 871.2 2286.26 887.6V980H2239.46V894.8C2239.46 881.8 2236.56 872.2 2230.76 866C2225.16 859.8 2217.16 856.7 2206.76 856.7C2199.36 856.7 2192.66 858.3 2186.66 861.5C2180.86 864.5 2176.26 869.2 2172.86 875.6C2169.66 882 2168.06 890.2 2168.06 900.2V980H2121.26ZM2405.76 1040.6C2390.56 1040.6 2375.86 1038.7 2361.66 1034.9C2347.66 1031.3 2335.96 1025.8 2326.56 1018.4L2345.16 984.8C2351.96 990.4 2360.56 994.8 2370.96 998C2381.56 1001.4 2391.96 1003.1 2402.16 1003.1C2418.76 1003.1 2430.76 999.4 2438.16 992C2445.76 984.6 2449.56 973.6 2449.56 959V934.7L2452.56 894.2L2451.96 853.4V818.6H2496.36V953C2496.36 983 2488.56 1005.1 2472.96 1019.3C2457.36 1033.5 2434.96 1040.6 2405.76 1040.6ZM2398.56 972.2C2383.56 972.2 2369.96 969 2357.76 962.6C2345.76 956 2336.06 946.9 2328.66 935.3C2321.46 923.5 2317.86 909.8 2317.86 894.2C2317.86 878.4 2321.46 864.7 2328.66 853.1C2336.06 841.3 2345.76 832.2 2357.76 825.8C2369.96 819.4 2383.56 816.2 2398.56 816.2C2412.16 816.2 2424.16 819 2434.56 824.6C2444.96 830 2453.06 838.5 2458.86 850.1C2464.66 861.5 2467.56 876.2 2467.56 894.2C2467.56 912 2464.66 926.7 2458.86 938.3C2453.06 949.7 2444.96 958.2 2434.56 963.8C2424.16 969.4 2412.16 972.2 2398.56 972.2ZM2407.86 933.8C2416.06 933.8 2423.36 932.2 2429.76 929C2436.16 925.6 2441.16 920.9 2444.76 914.9C2448.36 908.9 2450.16 902 2450.16 894.2C2450.16 886.2 2448.36 879.3 2444.76 873.5C2441.16 867.5 2436.16 862.9 2429.76 859.7C2423.36 856.3 2416.06 854.6 2407.86 854.6C2399.66 854.6 2392.36 856.3 2385.96 859.7C2379.56 862.9 2374.46 867.5 2370.66 873.5C2367.06 879.3 2365.26 886.2 2365.26 894.2C2365.26 902 2367.06 908.9 2370.66 914.9C2374.46 920.9 2379.56 925.6 2385.96 929C2392.36 932.2 2399.66 933.8 2407.86 933.8Z" fill="#212121"/>
</svg>
